<svg width="400" height="400" viewBox="0 0 400 400" fill="none" xmlns="http://www.w3.org/2000/svg">
  <style>
    .s-fill { fill: #404040; }
    .s-stroke { stroke: #404040; stroke-opacity: 0.1; }
    @media (prefers-color-scheme: dark) {
      .s-fill { fill: #BFBFBF; }
      .s-stroke { stroke: #BFBFBF; }
    }
  </style>
  <defs>
    <filter id="filter0_i_32_3" x="82.4795" y="38" width="245.753" height="325" filterUnits="userSpaceOnUse" color-interpolation-filters="sRGB">
      <feFlood flood-opacity="0" result="BackgroundImageFix"/>
      <feBlend mode="normal" in="SourceGraphic" in2="BackgroundImageFix" result="shape"/>
      <feColorMatrix in="SourceAlpha" type="matrix" values="0 0 0 0 0 0 0 0 0 0 0 0 0 0 0 0 0 0 127 0" result="hardAlpha"/>
      <feOffset dx="-4" dy="2"/>
      <feComposite in2="hardAlpha" operator="arithmetic" k2="-1" k3="1"/>
      <feColorMatrix type="matrix" values="0 0 0 0 0 0 0 0 0 0 0 0 0 0 0 0 0 0 0.25 0"/>
      <feBlend mode="normal" in2="shape" result="effect1_innerShadow_32_3"/>
    </filter>
  </defs>
  <g filter="url(#filter0_i_32_3)">
    <path class="s-fill" d="M167.579 42.122c-35.353 7.644-67.595 29.161-79.191 52.944-7.636 15.854-7.92 41.335-.566 57.19 11.03 24.065 35.636 41.052 106.06 73.894 67.313 31.144 83.717 45.3 83.717 72.479-.283 33.125-30.263 58.889-68.161 58.889-5.94 0-11.596 1.133-12.445 2.831-2.545 3.964 16.404 3.398 38.465-1.132 69.575-15.006 109.17-68.232 86.261-116.363-12.444-26.047-37.333-44.45-98.423-72.478-63.07-28.879-80.605-41.902-87.393-64.552-4.525-15.572-1.132-30.01 10.464-42.751 10.182-11.325 28.849-19.535 44.687-20.102 4.808 0 11.313-1.132 14.424-2.548 9.333-3.963-17.252-2.83-37.899 1.699z"/>
  </g>
  <path class="s-stroke" d="M278.099 298.634c-.286 33.462-30.556 59.385-68.662 59.385-2.942 0-5.804.28-8.024.766-1.111.244-2.045.535-2.742.859-.719.334-1.098.663-1.231.929l-.011.024-.015.022-.076.134a.597.597 0 00-.074.276c.001.075.027.159.119.262.211.236.699.493 1.563.705 1.694.417 4.457.579 8.037.473 7.139-.211 17.36-1.479 28.37-3.74v0c34.693-7.483 61.869-24.487 77.515-45.57 15.638-21.072 19.764-46.214 8.4-70.09-12.167-25.464-36.318-43.634-95.343-70.932l-2.837-1.307c-31.533-14.438-51.729-24.932-64.892-34.664-13.189-9.751-19.343-18.755-22.772-30.198l-.001-.004c-4.576-15.745-1.134-30.362 10.572-43.225v0c10.28-11.435 29.08-19.697 45.041-20.267h.018c2.369 0 5.168-.28 7.761-.737 2.601-.457 4.957-1.085 6.455-1.767l.012-.005c.57-.242.982-.456 1.258-.64.138-.092.233-.17.294-.232l.013-.016a2.239 2.239 0 00-.573-.21c-1.42-.36-4.442-.455-8.481-.278-8.033.353-19.812 1.765-30.107 4.023h-.001c-17.616 3.81-34.456 11.075-48.332 20.348-13.448 8.986-24.084 19.838-29.961 31.224l-.554 1.102c-3.778 7.844-5.748 18.101-5.854 28.382-.105 10.282 1.655 20.538 5.292 28.38l.001.002c5.468 11.929 14.306 22.128 30.588 33.453 16.295 11.333 40.018 23.776 75.227 40.195 33.65 15.569 54.642 26.92 67.218 37.802 6.297 5.449 10.502 10.795 13.128 16.511 2.627 5.717 3.661 11.773 3.661 18.62v.005z"/>
  <g>
    <animate attributeName="opacity" dur="1.6s" repeatCount="indefinite" values="1;0.2;1"/>
    <path class="s-fill" d="M109.666 238.613c.184-1.548 2.43-1.548 2.614 0l1.54 12.986c1.99 16.768 15.21 29.988 31.978 31.978l12.986 1.541c1.548.184 1.548 2.43 0 2.614l-12.986 1.54c-16.768 1.99-29.988 15.21-31.978 31.978l-1.54 12.986c-.184 1.548-2.43 1.548-2.614 0l-1.541-12.986c-1.99-16.768-15.21-29.988-31.978-31.978l-12.986-1.54c-1.548-.184-1.548-2.43 0-2.614l12.986-1.541c16.768-1.99 29.988-15.21 31.978-31.978l1.541-12.986z"/>
    <path class="s-stroke" d="M110.162 238.672c.114-.96 1.507-.96 1.621 0l1.541 12.986c2.017 16.997 15.418 30.398 32.415 32.415l12.987 1.541c.959.114.959 1.507 0 1.621l-12.987 1.541c-16.997 2.017-30.398 15.418-32.415 32.415l-1.541 12.987c-.114.959-1.507.959-1.621 0l-1.541-12.987c-2.017-16.997-15.418-30.398-32.415-32.415l-12.986-1.541c-.96-.114-.96-1.507 0-1.621l12.986-1.541c16.997-2.017 30.398-15.418 32.415-32.415l1.541-12.986z"/>
  </g>
  <g>
    <animate attributeName="opacity" begin="0.5s" dur="2.3s" repeatCount="indefinite" values="1;0.2;1"/>
    <path class="s-fill" d="M287.748 51.627c.184-1.548 2.43-1.548 2.614 0l1.541 12.986c1.989 16.768 15.21 29.988 31.978 31.978l12.985 1.54c1.548.184 1.548 2.431 0 2.614l-12.985 1.541c-16.768 1.99-29.989 15.21-31.978 31.978l-1.541 12.986c-.184 1.548-2.43 1.548-2.614 0l-1.541-12.986c-1.99-16.768-15.21-29.988-31.978-31.978l-12.986-1.541c-1.548-.183-1.548-2.43 0-2.614l12.986-1.54c16.768-1.99 29.988-15.21 31.978-31.978l1.541-12.986z"/>
    <path class="s-stroke" d="M288.244 51.685c.114-.96 1.507-.96 1.621 0l1.541 12.987c2.017 16.997 15.418 30.398 32.415 32.415l12.987 1.54c.959.115.959 1.508 0 1.622l-12.987 1.541c-16.997 2.017-30.398 15.418-32.415 32.415l-1.541 12.986c-.114.96-1.506.96-1.621 0l-1.541-12.986c-2.017-16.997-15.417-30.398-32.415-32.415l-12.986-1.541c-.96-.114-.96-1.507 0-1.621l12.986-1.541c16.998-2.017 30.398-15.418 32.415-32.415l1.541-12.986z"/>
  </g>
</svg>